<svg width="97" height="25" viewBox="0 0 97 25" fill="none" xmlns="http://www.w3.org/2000/svg">
<g id="Group 14">
<path id="Vector" d="M11 7.94368H7.25379V5.46429C7.25379 4.53317 7.86533 4.31609 8.29606 4.31609C8.72581 4.31609 10.9397 4.31609 10.9397 4.31609V0.222684L7.29887 0.208344C3.25717 0.208344 2.3374 3.26133 2.3374 5.21507V7.94368H0V12.1617H2.3374C2.3374 17.5749 2.3374 24.0972 2.3374 24.0972H7.25379C7.25379 24.0972 7.25379 17.5106 7.25379 12.1617H10.5712L11 7.94368Z" fill="#969595"/>
<path id="Vector_2" d="M56 4.55561C55.081 4.9559 54.0919 5.22592 53.0541 5.34675C54.1137 4.72517 54.9262 3.7406 55.3093 2.56606C54.3182 3.14239 53.221 3.56059 52.0523 3.78634C51.117 2.80972 49.7839 2.19908 48.3086 2.19908C45.4764 2.19908 43.18 4.44919 43.18 7.22491C43.18 7.61825 43.2252 8.00164 43.313 8.37011C39.0502 8.16026 35.2704 6.15978 32.7407 3.11902C32.2991 3.86093 32.0464 4.72418 32.0464 5.6461C32.0464 7.38951 32.9518 8.92804 34.3281 9.82908C33.4877 9.80272 32.6965 9.57647 32.0048 9.20004C32.0043 9.22093 32.0043 9.24231 32.0043 9.26369C32.0043 11.6983 33.7724 13.7291 36.119 14.1916C35.6886 14.3059 35.2354 14.3676 34.7675 14.3676C34.4367 14.3676 34.1154 14.3363 33.8023 14.2771C34.4554 16.2736 36.3494 17.7271 38.5934 17.7674C36.8381 19.1155 34.627 19.919 32.2235 19.919C31.8099 19.919 31.4014 19.8952 31 19.8484C33.2705 21.2751 35.9662 22.1065 38.8624 22.1065C48.297 22.1065 53.4555 14.4486 53.4555 7.80721C53.4555 7.58941 53.4509 7.3721 53.4413 7.15629C54.443 6.44918 55.3129 5.56356 56 4.55561Z" fill="#969595"/>
<g id="Group">
<path id="Vector_3" d="M86.2 7.07047C83.321 7.07047 80.9355 9.40394 80.9355 12.3106C80.9355 15.2172 83.2799 17.5507 86.2 17.5507C89.1201 17.5507 91.4645 15.1762 91.4645 12.3106C91.4645 9.44488 89.079 7.07047 86.2 7.07047ZM86.2 15.6675C84.3492 15.6675 82.8275 14.1528 82.8275 12.3106C82.8275 10.4683 84.3492 8.95362 86.2 8.95362C88.0508 8.95362 89.5726 10.4683 89.5726 12.3106C89.5726 14.1528 88.0508 15.6675 86.2 15.6675Z" fill="#969595"/>
<path id="Vector_4" d="M91.6693 8.13543C92.328 8.13543 92.862 7.6039 92.862 6.94823C92.862 6.29255 92.328 5.76102 91.6693 5.76102C91.0106 5.76102 90.4766 6.29255 90.4766 6.94823C90.4766 7.6039 91.0106 8.13543 91.6693 8.13543Z" fill="#969595"/>
<path id="Vector_5" d="M94.7547 3.87753C93.6853 2.7722 92.1636 2.19907 90.4362 2.19907H81.9637C78.3855 2.19907 76 4.57348 76 8.13511V16.5274C76 18.2878 76.5758 19.8025 77.7274 20.9078C78.8379 21.9722 80.3185 22.5044 82.0048 22.5044H90.395C92.1636 22.5044 93.6442 21.9313 94.7135 20.9078C95.824 19.8434 96.3998 18.3287 96.3998 16.5684V8.13511C96.3998 6.4157 95.824 4.94193 94.7547 3.87753ZM94.5901 16.5684C94.5901 17.8375 94.1377 18.8609 93.3974 19.5569C92.6571 20.2528 91.6289 20.6213 90.395 20.6213H82.0048C80.7709 20.6213 79.7427 20.2528 79.0024 19.5569C78.2621 18.82 77.8919 17.7965 77.8919 16.5274V8.13511C77.8919 6.90696 78.2621 5.88351 79.0024 5.14662C79.7016 4.45067 80.7709 4.08222 82.0048 4.08222H90.4773C91.7111 4.08222 92.7394 4.45067 93.4797 5.18756C94.1789 5.92444 94.5901 6.9479 94.5901 8.13511V16.5684Z" fill="#969595"/>
</g>
</g>
</svg>
