<svg width="38" height="38" viewBox="0 0 38 38" fill="none" xmlns="http://www.w3.org/2000/svg">
<path d="M19.1851 9.11694C13.8911 9.11694 9.5047 13.4839 9.5047 18.9234C9.5047 24.3629 13.8155 28.7298 19.1851 28.7298C24.5547 28.7298 28.8655 24.2863 28.8655 18.9234C28.8655 13.5605 24.4791 9.11694 19.1851 9.11694ZM19.1851 25.2056C15.7818 25.2056 12.9836 22.371 12.9836 18.9234C12.9836 15.4758 15.7818 12.6411 19.1851 12.6411C22.5884 12.6411 25.3866 15.4758 25.3866 18.9234C25.3866 22.371 22.5884 25.2056 19.1851 25.2056Z" fill="#FBAD17"/>
<path d="M29.2437 11.1089C30.4549 11.1089 31.4369 10.1141 31.4369 8.8871C31.4369 7.66004 30.4549 6.66532 29.2437 6.66532C28.0324 6.66532 27.0504 7.66004 27.0504 8.8871C27.0504 10.1141 28.0324 11.1089 29.2437 11.1089Z" fill="#FBAD17"/>
<path d="M34.9158 3.14113C32.9494 1.07258 30.1512 0 26.9748 0H11.3954C4.81576 0 0.429321 4.44355 0.429321 11.1089V26.8145C0.429321 30.1089 1.48812 32.9435 3.6057 35.0121C5.64766 37.004 8.37028 38 11.471 38H26.8992C30.1512 38 32.8738 36.9274 34.8401 35.0121C36.8821 33.0202 37.9409 30.1855 37.9409 26.8911V11.1089C37.9409 7.89113 36.8821 5.13306 34.9158 3.14113ZM34.6133 26.8911C34.6133 29.2661 33.7813 31.1815 32.42 32.4839C31.0587 33.7863 29.168 34.4758 26.8992 34.4758H11.471C9.20219 34.4758 7.31148 33.7863 5.95018 32.4839C4.58887 31.1048 3.90822 29.1895 3.90822 26.8145V11.1089C3.90822 8.81048 4.58887 6.89516 5.95018 5.51613C7.23586 4.21371 9.20219 3.52419 11.471 3.52419H27.0504C29.3193 3.52419 31.21 4.21371 32.5713 5.59274C33.857 6.97177 34.6133 8.8871 34.6133 11.1089V26.8911Z" fill="#FBAD17"/>
</svg>
