<svg width="82" height="31" viewBox="0 0 82 31" fill="none" xmlns="http://www.w3.org/2000/svg">
<path d="M3.764 1.8C3.764 1.8 3.764 2.016 3.764 2.088C5.06 2.196 5.708 3.132 5.708 4.572V21.168C5.708 27.108 3.764 28.908 0.56 30.348L0.668 30.672C4.232 29.448 8.552 27.396 8.552 21.168V4.212C8.552 2.916 8.804 2.412 9.38 2.088C9.38 2.016 9.38 1.8 9.38 1.8H3.764ZM24.9722 1.44C17.8442 1.44 11.9042 7.2 11.9042 14.328C11.9042 21.42 17.8442 27.216 24.9722 27.216C32.1002 27.216 38.0402 21.42 38.0402 14.328C38.0402 7.2 32.1002 1.44 24.9722 1.44ZM28.6442 26.352C22.6322 28.188 17.3042 23.616 15.3602 17.244C13.4162 10.908 15.2882 4.14 21.3002 2.304C27.3122 0.467998 32.6402 5.04 34.5842 11.376C36.5282 17.748 34.6562 24.516 28.6442 26.352ZM56.153 22.5C54.461 24.696 51.509 26.748 47.513 26.748H44.237V4.212C44.237 2.916 44.489 2.412 45.029 2.088C45.029 2.016 45.029 1.8 45.029 1.8H40.565C40.565 1.8 40.565 2.016 40.565 2.088C41.141 2.412 41.393 2.916 41.393 4.212V24.624C41.393 25.884 41.141 26.424 40.565 26.748C40.565 26.82 40.565 27 40.565 27H55.577L56.369 22.644L56.153 22.5ZM62.9938 2.088C62.9938 2.016 62.9938 1.8 62.9938 1.8H58.5298C58.5298 1.8 58.5298 2.016 58.5298 2.088C59.0698 2.412 59.3218 2.952 59.3218 4.212V24.624C59.3218 25.884 59.0698 26.424 58.5298 26.748C58.5298 26.82 58.5298 27 58.5298 27H62.9938C62.9938 27 62.9938 26.82 62.9938 26.748C62.4178 26.424 62.1658 25.884 62.1658 24.624V4.212C62.1658 2.952 62.4178 2.412 62.9938 2.088ZM81.0695 22.5C79.3775 24.696 76.3895 26.748 72.4295 26.748H69.5135V12.996L78.5855 13.752V11.916L69.5135 12.708V2.088H72.0335C76.0295 2.088 78.2615 4.068 79.9175 5.94L80.0975 5.796L79.3415 1.8H65.8775C65.8775 1.8 65.8775 2.016 65.8775 2.088C66.4175 2.412 66.6695 2.952 66.6695 4.212V24.624C66.6695 25.884 66.4175 26.424 65.8775 26.748C65.8775 26.82 65.8775 27 65.8775 27H80.4935L81.2855 22.644L81.0695 22.5Z" fill="white"/>
</svg>
