<svg width="34" height="34" viewBox="0 0 34 34" fill="none" xmlns="http://www.w3.org/2000/svg">
<path d="M22.6681 24.1636L25.5958 21.2347C25.9902 20.8451 26.4891 20.5784 27.032 20.467C27.5749 20.3556 28.1385 20.4042 28.6543 20.607L32.2224 22.0323C32.7437 22.2439 33.1907 22.6052 33.507 23.0706C33.8233 23.536 33.9949 24.0846 34 24.6474V31.1851C33.997 31.5679 33.9165 31.9462 33.7635 32.2971C33.6105 32.648 33.3881 32.9643 33.1097 33.2269C32.8313 33.4896 32.5026 33.6931 32.1435 33.8254C31.7843 33.9576 31.4022 34.0158 31.02 33.9963C6.01664 32.4404 0.971533 11.2581 0.0174062 3.15125C-0.026885 2.75315 0.0135827 2.35018 0.136147 1.96884C0.258711 1.58751 0.460594 1.23646 0.728514 0.938791C0.996435 0.641118 1.32432 0.40357 1.6906 0.241772C2.05688 0.0799745 2.45326 -0.00240479 2.85365 5.34383e-05H9.16657C9.72991 0.00172159 10.2799 0.171954 10.7457 0.488854C11.2115 0.805754 11.572 1.25483 11.7806 1.77832L13.2053 5.34793C13.4147 5.86189 13.4682 6.42619 13.3589 6.97035C13.2497 7.51452 12.9826 8.01441 12.591 8.4076L9.66323 11.3365C9.66323 11.3365 11.3493 22.7514 22.6681 24.1636Z" fill="#FFAC0D"/>
</svg>
