<svg width="27" height="24" viewBox="0 0 27 24" fill="none" xmlns="http://www.w3.org/2000/svg">
<g id="Mask group">
<mask id="mask0_535_448" style="mask-type:alpha" maskUnits="userSpaceOnUse" x="0" y="0" width="27" height="24">
<path id="Vector" d="M9.87 7.71926C9.87 7.71926 4.95067 8.24654 1.66904 8.59905C1.37326 8.6337 1.11173 8.82503 1.01365 9.11578C0.915577 9.40654 1.01365 9.70934 1.2316 9.90066C3.66947 12.0534 7.33249 15.2773 7.33249 15.2773C7.32938 15.2773 6.32684 19.967 5.66055 23.096C5.6045 23.3792 5.71036 23.679 5.96567 23.8583C6.21942 24.0376 6.54634 24.0406 6.8032 23.9005C9.67384 22.3217 13.9736 19.9475 13.9736 19.9475C13.9736 19.9475 18.2749 22.3217 21.1409 23.902C21.4024 24.0406 21.7293 24.0376 21.9831 23.8583C22.2384 23.679 22.3442 23.3792 22.2866 23.0975C21.6203 19.967 20.6193 15.2773 20.6193 15.2773C20.6193 15.2773 24.2824 12.0534 26.7202 9.90518C26.9382 9.70783 27.0347 9.40503 26.9382 9.11578C26.8417 8.82654 26.5801 8.63521 26.2843 8.60207C23.0027 8.24654 18.0818 7.71926 18.0818 7.71926C18.0818 7.71926 16.0425 3.35345 14.6835 0.442909C14.5558 0.182286 14.288 0 13.9736 0C13.6591 0 13.3898 0.183792 13.2684 0.442909C11.9078 3.35345 9.87 7.71926 9.87 7.71926Z" fill="#FFC01D"/>
</mask>
<g mask="url(#mask0_535_448)">
<rect id="Rectangle 27" x="13.9756" y="-4" width="15" height="31" fill="#CDCDCD"/>
</g>
</g>
</svg>
