<svg width="45" height="36" viewBox="0 0 45 36" fill="none" xmlns="http://www.w3.org/2000/svg">
<path d="M44.9537 4.26148C43.3207 4.98536 41.5632 5.47365 39.7192 5.69216C41.602 4.56812 43.0457 2.78763 43.7265 0.663636C41.9654 1.70585 40.0159 2.46211 37.9392 2.87036C36.2773 1.10426 33.9085 0 31.2872 0C26.2547 0 22.1744 4.06904 22.1744 9.08858C22.1744 9.79987 22.2546 10.4932 22.4106 11.1595C14.8361 10.78 8.12011 7.16241 3.62502 1.66359C2.84052 3.00524 2.39146 4.56632 2.39146 6.2335C2.39146 9.38622 4.00013 12.1685 6.44561 13.7979C4.95235 13.7502 3.54657 13.3411 2.31752 12.6603C2.31661 12.6981 2.31661 12.7368 2.31661 12.7754C2.31661 17.1781 5.45822 20.8506 9.62779 21.6869C8.86313 21.8937 8.05789 22.0052 7.2265 22.0052C6.63857 22.0052 6.06778 21.9485 5.51142 21.8415C6.67194 25.452 10.0372 28.0804 14.0246 28.1533C10.9055 30.5911 6.97672 32.0443 2.70616 32.0443C1.97126 32.0443 1.24537 32.0011 0.532104 31.9166C4.56641 34.4965 9.35637 36 14.5025 36C31.2664 36 40.4325 22.1518 40.4325 10.1416C40.4325 9.74771 40.4243 9.35475 40.4072 8.96448C42.1872 7.68577 43.7328 6.08423 44.9537 4.26148Z" fill="#FBAD17"/>
</svg>
